<?xml version="1.0" standalone="no"?>
<!DOCTYPE svg PUBLIC "-//W3C//DTD SVG 20010904//EN"
 "http://www.w3.org/TR/2001/REC-SVG-20010904/DTD/svg10.dtd">
<svg version="1.0" xmlns="http://www.w3.org/2000/svg"
 width="718.000000pt" height="264.000000pt" viewBox="0 0 718.000000 264.000000"
 preserveAspectRatio="xMidYMid meet">

<g transform="translate(0.000000,264.000000) scale(0.100000,-0.100000)"
fill="#000000" stroke="none">
<path d="M0 1320 l0 -1320 3590 0 3590 0 0 1320 0 1320 -3590 0 -3590 0 0
-1320z m2403 609 c31 -43 2 -99 -52 -99 -59 0 -87 57 -50 103 28 36 73 34 102
-4z m2787 -314 l0 -345 -55 0 -55 0 0 345 0 345 55 0 55 0 0 -345z m540 214
l0 -130 29 20 c70 50 171 47 234 -9 48 -42 57 -84 57 -274 l0 -166 -55 0 -55
0 0 160 c0 208 -10 230 -99 230 -49 0 -87 -30 -101 -78 -5 -20 -10 -99 -10
-175 l0 -138 -52 3 -53 3 -3 320 c-1 176 0 330 3 343 5 19 12 22 55 22 l50 0
0 -131z m-2538 -116 l3 -218 45 -5 c42 -5 45 -7 45 -35 0 -28 -3 -30 -45 -35
l-45 -5 -3 -83 -3 -83 -37 3 -37 3 -3 83 -3 82 -144 0 -145 0 0 38 c0 34 20
67 152 255 145 209 153 217 184 217 l34 0 2 -217z m-2646 170 c15 -21 61 -81
102 -135 l75 -96 58 76 c152 199 144 192 199 192 l50 0 0 -325 0 -325 -55 0
-55 0 0 238 c-1 211 -2 235 -15 217 -8 -11 -33 -42 -54 -70 -22 -27 -60 -76
-84 -108 l-45 -57 -98 127 -99 127 -3 -237 -2 -237 -50 0 -50 0 0 325 0 325
49 0 c45 0 51 -3 77 -37z m2894 -98 l0 -135 160 0 160 0 0 135 0 135 55 0 55
0 0 -325 0 -325 -55 0 -55 0 0 140 0 140 -160 0 -160 0 0 -140 0 -140 -49 0
-50 0 -3 93 c-2 50 -2 197 0 325 l3 232 49 0 50 0 0 -135z m-770 25 l0 -60 40
0 40 0 0 -45 0 -45 -40 0 -40 0 0 -138 c0 -149 4 -162 52 -162 27 0 28 -2 28
-45 l0 -45 -49 0 c-67 0 -97 13 -121 52 -18 29 -20 51 -20 186 l0 152 -41 0
-40 0 3 43 c3 41 5 42 41 45 l37 3 0 60 0 59 55 0 55 0 0 -60z m2780 0 c0 -50
3 -60 18 -61 71 -4 67 -2 70 -46 l3 -43 -45 0 -46 0 0 -134 c0 -149 6 -166 61
-166 29 0 30 -1 27 -42 l-3 -43 -52 -3 c-66 -4 -110 18 -129 63 -10 24 -14 77
-14 180 l0 145 -35 0 c-35 0 -35 0 -35 45 0 45 0 45 35 45 l35 0 0 60 0 60 55
0 55 0 0 -60z m-3997 -65 c75 -19 121 -57 154 -124 20 -41 27 -68 26 -115 -1
-107 -46 -178 -138 -222 -137 -65 -299 7 -340 150 -21 71 -16 119 19 191 31
62 81 104 146 121 60 17 66 17 133 -1z m629 -11 c69 -36 90 -114 86 -320 l-3
-139 -52 -3 -52 -3 -3 170 c-3 163 -4 170 -27 195 -19 20 -34 26 -68 26 -99 0
-113 -30 -113 -235 l0 -155 -55 0 -55 0 2 238 3 237 48 3 c47 3 47 3 47 -29
l0 -32 24 22 c53 50 149 61 218 25z m2188 14 c62 -14 131 -71 153 -125 8 -21
18 -62 22 -90 l7 -53 -180 0 c-100 0 -183 -4 -186 -8 -2 -4 3 -26 13 -48 36
-80 146 -98 203 -35 24 27 35 31 78 31 56 0 60 -8 31 -56 -73 -120 -263 -140
-365 -38 -46 46 -66 100 -66 180 0 122 63 212 170 240 58 16 59 16 120 2z
m596 -19 c25 -12 48 -33 62 -58 20 -35 22 -53 22 -187 0 -82 4 -164 9 -182
l10 -32 -55 0 c-51 0 -54 1 -54 25 0 29 -12 32 -30 9 -22 -25 -79 -44 -137
-44 -104 0 -163 51 -163 142 0 61 40 110 108 132 37 13 161 34 206 36 12 0 -3
52 -20 71 -36 41 -159 25 -171 -21 -5 -17 -14 -20 -59 -20 -60 0 -62 4 -38 57
45 93 193 128 310 72z m-2466 -219 l0 -240 -55 0 -55 0 0 233 c0 129 3 237 7
240 3 4 28 7 55 7 l48 0 0 -240z m3895 73 c33 -89 63 -165 67 -168 6 -6 8 -2
63 145 77 203 64 185 123 188 39 2 52 0 52 -11 0 -7 -29 -85 -65 -173 -37 -87
-96 -233 -132 -324 -83 -204 -119 -266 -199 -345 -107 -105 -208 -143 -266
-102 -13 9 -45 32 -73 52 -150 107 -210 108 -335 1 -110 -92 -134 -102 -270
-111 -65 -4 -122 -12 -132 -19 -10 -7 -31 -50 -49 -94 -40 -105 -68 -109 -83
-12 -10 65 -107 482 -116 499 -5 10 -9 7 -13 -10 -3 -13 -25 -105 -48 -204
-23 -99 -48 -187 -56 -195 -13 -13 -16 -12 -33 8 -18 22 -22 22 -243 22 -214
0 -225 1 -230 19 -8 31 -66 61 -116 61 -47 0 -104 -28 -121 -61 -10 -18 -27
-19 -405 -19 -371 0 -397 1 -445 20 -57 22 -150 26 -183 8 -14 -8 -60 -11
-127 -10 -101 2 -106 3 -124 28 -39 53 -121 127 -160 145 -104 47 -236 -4
-302 -117 l-26 -44 -141 0 c-78 0 -152 -3 -164 -6 -18 -5 -28 -23 -49 -93 -40
-130 -64 -181 -84 -181 -24 0 -27 8 -55 198 -47 324 -75 507 -79 517 -6 18
-15 -54 -41 -320 -14 -143 -28 -266 -30 -272 -6 -17 -30 -16 -47 0 -7 8 -22
52 -32 99 l-19 85 -96 7 c-53 3 -156 6 -229 6 l-132 0 -11 28 c-35 90 -64 114
-147 120 -74 5 -149 -25 -188 -75 l-27 -35 -235 6 c-172 4 -238 9 -243 18 -5
7 -4 17 0 21 5 5 109 8 231 8 l222 -2 43 40 c117 107 333 82 375 -44 7 -20 20
-35 33 -39 12 -3 105 -6 207 -6 207 0 226 -5 245 -60 12 -34 13 -34 19 -10 3
14 19 161 36 328 16 167 32 308 35 313 10 15 34 10 43 -8 5 -10 15 -56 21
-103 7 -47 18 -125 26 -175 8 -49 28 -180 45 -290 44 -290 37 -275 74 -154 17
57 35 110 39 117 6 9 51 12 167 12 l158 0 36 50 c110 153 299 170 440 40 25
-23 55 -58 67 -76 l21 -34 79 0 c44 0 90 5 102 12 12 7 58 12 102 13 66 0 87
-4 118 -23 38 -22 42 -22 416 -22 l377 0 23 31 c57 77 202 79 281 4 25 -23 29
-24 243 -27 l218 -3 8 35 c5 19 19 80 31 135 11 55 27 123 35 150 8 28 21 75
28 105 11 42 19 55 33 55 15 0 24 -17 42 -85 39 -139 51 -188 83 -335 39 -184
36 -177 63 -118 13 28 30 54 37 59 8 5 68 11 134 14 135 6 140 8 242 91 96 79
140 99 211 99 64 0 122 -24 193 -81 21 -16 53 -36 73 -44 34 -14 39 -14 84 9
90 46 162 142 231 309 l41 99 -94 231 c-52 128 -92 236 -89 240 3 4 28 7 56 5
l51 -3 61 -162z"/>
<path d="M3004 1648 c-55 -78 -100 -146 -102 -150 -2 -4 44 -8 102 -8 l106 0
0 150 c0 83 -2 150 -4 150 -2 0 -48 -64 -102 -142z"/>
<path d="M1323 1644 c-47 -23 -77 -91 -70 -155 7 -60 34 -101 82 -124 103 -48
211 52 190 176 -16 96 -115 146 -202 103z"/>
<path d="M4152 1653 c-30 -15 -62 -57 -62 -83 0 -6 44 -10 125 -10 69 0 125 3
125 8 0 22 -45 75 -75 88 -44 18 -72 17 -113 -3z"/>
<path d="M4765 1483 c-66 -9 -106 -25 -121 -48 -41 -62 29 -112 117 -84 50 16
89 65 89 110 0 31 -7 33 -85 22z"/>
</g>
</svg>
