<?xml version="1.0" standalone="no"?>
<!DOCTYPE svg PUBLIC "-//W3C//DTD SVG 20010904//EN"
 "http://www.w3.org/TR/2001/REC-SVG-20010904/DTD/svg10.dtd">
<svg version="1.0" xmlns="http://www.w3.org/2000/svg"
 width="646.000000pt" height="154.000000pt" viewBox="0 0 646.000000 154.000000"
 preserveAspectRatio="xMidYMid meet">

<g transform="translate(0.000000,154.000000) scale(0.100000,-0.100000)"
fill="#000000" stroke="none">
<path d="M2109 1487 c-39 -30 -30 -101 16 -113 41 -10 71 3 85 37 11 27 11 33
-7 57 -22 30 -68 40 -94 19z"/>
<path d="M4880 1155 l0 -345 55 0 55 0 0 345 0 345 -55 0 -55 0 0 -345z"/>
<path d="M5425 1478 c-3 -13 -4 -167 -3 -343 l3 -320 53 -3 52 -3 0 138 c0 76
5 155 10 175 14 48 52 78 101 78 89 0 99 -22 99 -230 l0 -160 55 0 55 0 0 166
c0 190 -9 232 -57 274 -63 56 -164 59 -234 9 l-29 -20 0 130 0 131 -50 0 c-43
0 -50 -3 -55 -22z"/>
<path d="M2772 1253 c-132 -188 -152 -221 -152 -255 l0 -38 145 0 144 0 3 -82
3 -83 37 -3 37 -3 3 83 3 83 44 5 c33 4 45 10 47 24 5 36 -7 46 -52 46 l-44 0
0 220 0 220 -33 0 c-33 0 -39 -8 -185 -217z m138 -73 l0 -150 -106 0 c-58 0
-104 4 -102 8 6 14 200 292 204 292 2 0 4 -67 4 -150z"/>
<path d="M220 1135 l0 -325 50 0 50 0 2 238 3 237 99 -128 98 -128 42 54 c22
29 66 85 96 125 l55 72 3 -235 2 -235 55 0 55 0 0 325 0 325 -49 0 c-55 0 -56
-1 -186 -173 -68 -90 -72 -94 -88 -74 -7 8 -52 67 -101 131 l-89 116 -48 0
-49 0 0 -325z"/>
<path d="M3138 1228 c-2 -128 -2 -275 0 -325 l3 -93 50 0 49 0 0 140 0 140
160 0 160 0 0 -140 0 -140 55 0 55 0 0 325 0 325 -55 0 -55 0 0 -135 0 -135
-160 0 -160 0 0 135 0 135 -50 0 -49 0 -3 -232z"/>
<path d="M2360 1351 l0 -60 -37 -3 c-37 -3 -38 -4 -41 -45 l-3 -43 40 0 41 0
0 -152 c0 -135 2 -157 20 -186 24 -39 54 -52 121 -52 l49 0 0 45 c0 43 -1 45
-28 45 -48 0 -52 13 -52 162 l0 138 40 0 40 0 0 45 0 45 -40 0 -40 0 0 60 0
60 -55 0 -55 0 0 -59z"/>
<path d="M5138 1348 l-3 -63 -32 3 c-33 3 -33 3 -33 -42 0 -46 0 -46 35 -46
l35 0 0 -145 c0 -208 22 -245 145 -245 l55 0 0 45 c0 43 -1 45 -29 45 -55 0
-61 17 -61 166 l0 134 46 0 45 0 -3 43 c-3 42 -3 42 -45 45 l-43 3 0 60 0 59
-55 0 -54 0 -3 -62z"/>
<path d="M1130 1289 c-64 -13 -120 -57 -153 -121 -38 -72 -43 -121 -22 -194
41 -143 203 -215 340 -150 92 44 137 115 138 222 1 119 -71 214 -182 241 -62
14 -59 14 -121 2z m127 -109 c49 -30 68 -65 67 -129 0 -76 -24 -118 -81 -143
-58 -26 -102 -18 -147 26 -50 51 -60 122 -26 192 34 70 120 95 187 54z"/>
<path d="M1727 1286 c-22 -8 -49 -24 -62 -36 l-23 -22 -4 28 c-3 27 -6 29 -48
29 l-45 0 -3 -237 -2 -238 55 0 55 0 0 155 c0 205 14 235 113 235 34 0 49 -6
68 -26 23 -25 24 -32 27 -195 l3 -169 55 0 54 0 0 144 c0 215 -20 285 -91 321
-43 23 -108 27 -152 11z"/>
<path d="M3950 1286 c-107 -28 -170 -118 -170 -240 0 -83 21 -135 71 -183 105
-99 287 -78 360 41 29 48 25 56 -31 56 -43 0 -54 -4 -78 -31 -57 -63 -167 -46
-202 33 -10 23 -16 46 -14 50 3 4 86 8 185 8 l180 0 -6 48 c-16 124 -79 200
-181 221 -66 13 -57 13 -114 -3z m115 -90 c30 -13 75 -66 75 -88 0 -5 -56 -8
-125 -8 -81 0 -125 4 -125 10 0 26 32 68 62 83 41 20 69 21 113 3z"/>
<path d="M4490 1291 c-76 -16 -130 -62 -145 -124 -7 -27 -7 -27 48 -27 46 0
55 3 60 20 14 52 139 61 177 12 18 -22 28 -62 16 -62 -31 0 -172 -25 -208 -36
-68 -22 -108 -71 -108 -132 0 -91 59 -142 163 -142 58 0 115 19 137 44 18 23
30 20 30 -9 0 -24 3 -25 54 -25 l55 0 -10 32 c-5 18 -9 100 -9 182 0 134 -2
152 -22 187 -35 64 -145 100 -238 80z m160 -290 c0 -45 -39 -94 -89 -110 -88
-28 -158 22 -117 84 19 29 83 48 179 54 23 1 27 -3 27 -28z"/>
<path d="M2097 1284 c-3 -3 -6 -111 -7 -240 l-1 -234 56 0 55 0 0 240 0 240
-48 0 c-27 0 -51 -3 -55 -6z"/>
<path d="M5927 1283 c-3 -5 3 -29 13 -53 11 -25 53 -129 95 -231 l75 -186 -41
-99 c-70 -169 -141 -263 -233 -311 -48 -24 -50 -25 -85 -8 -19 9 -51 29 -71
45 -70 56 -129 80 -192 80 -71 0 -115 -20 -211 -99 -102 -83 -107 -85 -242
-91 -66 -3 -126 -9 -134 -14 -7 -5 -24 -31 -37 -59 -27 -59 -24 -66 -63 118
-32 147 -44 196 -83 335 -40 148 -62 117 -129 -185 -11 -49 -26 -117 -32 -149
l-12 -59 -220 2 c-217 2 -220 3 -245 26 -79 75 -224 73 -281 -4 l-23 -31 -377
0 c-374 0 -378 0 -416 22 -31 19 -52 23 -118 23 -44 -1 -90 -6 -102 -13 -12
-7 -58 -12 -102 -12 l-79 0 -21 34 c-12 18 -42 53 -67 76 -141 130 -330 113
-440 -40 l-36 -51 -154 2 c-84 0 -158 -2 -163 -6 -6 -3 -22 -45 -37 -93 -14
-48 -29 -98 -34 -112 l-8 -25 -5 25 c-4 14 -20 117 -37 230 -17 113 -37 246
-45 295 -8 50 -19 128 -26 175 -6 47 -16 93 -21 103 -9 18 -33 23 -43 8 -5
-10 -18 -125 -50 -456 -8 -88 -18 -171 -21 -185 -6 -24 -7 -24 -19 10 -19 55
-38 60 -245 60 -102 0 -194 3 -206 6 -11 3 -29 24 -40 47 -58 127 -270 142
-379 27 l-30 -31 -225 2 c-223 2 -225 2 -228 -20 -2 -11 0 -21 5 -21 4 0 112
-3 239 -6 l231 -6 27 35 c39 50 114 80 188 75 83 -6 112 -30 147 -120 l11 -28
123 0 c68 0 171 -3 229 -6 l105 -7 19 -85 c18 -85 33 -112 59 -112 20 0 22 12
50 290 26 261 35 333 41 315 3 -10 59 -370 89 -577 18 -126 22 -138 44 -138
22 0 40 38 79 166 26 83 36 103 54 108 13 3 87 6 165 6 l141 0 26 45 c30 50
100 108 153 126 42 14 120 6 162 -16 30 -15 117 -98 149 -143 16 -20 26 -22
122 -24 68 -2 113 2 127 10 33 18 126 15 183 -8 48 -19 74 -20 445 -20 378 0
395 1 405 19 17 33 74 61 121 61 50 0 108 -30 116 -61 5 -18 16 -19 230 -19
221 0 225 0 243 -22 17 -20 20 -21 33 -8 8 8 22 49 32 90 46 212 79 331 86
319 8 -17 105 -435 115 -499 15 -97 44 -93 84 13 17 46 39 88 49 94 11 7 70
15 132 19 135 8 160 18 269 110 125 107 185 106 335 -1 28 -20 60 -43 73 -52
58 -41 157 -3 265 101 80 77 117 140 200 346 36 91 95 237 132 324 36 88 65
166 65 173 0 9 -16 13 -50 13 -43 0 -52 -3 -60 -22 -5 -13 -30 -77 -55 -143
-67 -176 -67 -176 -73 -170 -3 3 -33 78 -67 168 l-62 162 -51 3 c-27 2 -52 -1
-55 -5z"/>
</g>
</svg>
